<?xml version="1.0" encoding="utf-8"?>
<!-- Generator: Adobe Illustrator 19.1.0, SVG Export Plug-In . SVG Version: 6.00 Build 0)  -->
<svg version="1.1" id="Layer_1" xmlns="http://www.w3.org/2000/svg" xmlns:xlink="http://www.w3.org/1999/xlink" x="0px" y="0px"
	 viewBox="-728 949.2 244 88.1" style="enable-background:new -728 949.2 244 88.1;" xml:space="preserve">
<style type="text/css">
	.st0{fill:#FFFFFF;}
	.st1{fill:#5AD663;}
	.st2{fill:#040305;}
	.st3{fill:none;}
	.st4{enable-background:new    ;}
</style>
<g>
	<path class="st0" d="M-701.5,965c0.8-0.6,1.6-0.9,2.4-1c3.8-1.2,9.3-2,15.6-2.5c-3-2.7-6.1-4.9-9-6.6c-2-1.1-3.9-2-5.9-2.8
		c0.2-1.5-0.9-2.8-2.4-2.9c-1.1,0-2.1,0.6-2.5,1.6c-2.2-0.3-4.3-0.1-6,0.9s-2.9,2.8-3.7,5c-1.1-0.1-2.2,0.5-2.7,1.5
		c-0.7,1.4,0.1,3.1,1.5,3.6c-0.3,2-0.4,4.1-0.3,6.3c0,3.4,0.6,7.2,1.5,11.3c3.4-5.3,6.7-9.8,9.5-12.6
		C-703.1,966-702.4,965.5-701.5,965z"/>
	<path class="st1" d="M-664.4,961.5c-6.1,0.4-12.6,0.7-18.5,1.3c-6.2,0.5-11.8,1.3-15.6,2.5c-0.7,0.1-1.5,0.4-2.4,1
		c-0.9,0.5-1.6,1-2,1.6c-2.9,2.7-6.1,7.3-9.5,12.6c-3.2,5-6.6,10.6-9.8,15.8c-10.2,16.5-4.3,20.5,2.7,29.8c1.2,1.6,9.3,9.8,9.5,7.8
		c0.4-4.1,6.8-13.2,12.9-22.7c3-4.7,6-9.6,8-13.9c1.2-2.6,2-5,2.5-7.2c2.2,0.6,4.6,1.1,7.6,1.2c4.8,0.2,10.4-0.1,16-0.6
		c11.2-0.9,22.3-2.3,26.1-0.8c1.9,0.8-1.5-10.2-2.4-12C-644.3,967.4-645.1,960.2-664.4,961.5z"/>
	<g>
		<path class="st0" d="M-678.3,992.5c-2.3-0.1-4.4-0.4-6.3-0.9c1.5,2.5,3,5,4.5,7.4c0.1,0.1,0.2,0.2,0.2,0.4
			c0.3,0.4,0.8,0.7,1.3,0.8c2.1,0.4,4.1,0.8,6.2,1.2c0.8,0.1,1.6,0.3,2.3,0.4c1.2,0.3,2.3,1,2.9,2.1c0.7,1.1,1.4,2.4,2.1,3.6
			c0,0,0,0.1,0.1,0.1c0,0.1,0.1,0.1,0.2,0.1c1.2-0.2,2.1,0.2,2.8,1.1c0.9,1.4,0.3,3.4-1.3,4.1c-1.2,0.5-2.6,0.2-3.4-0.8
			c-0.7-0.9-0.7-2.3,0.1-3.3c0.1-0.1,0.1-0.2,0-0.2c0,0,0-0.1-0.1-0.1l-2.2-3.7c-0.1-0.1-0.1-0.2-0.2-0.3c-0.4-0.4-0.8-0.7-1.3-0.8
			c-2.6-0.5-5.1-1-7.7-1.5h-0.1c3.6,6,7.2,11.9,10.7,17.9c0,0,0,0.1,0.1,0.1c0,0.1,0.1,0.1,0.2,0.1c1.2-0.2,2.1,0.2,2.8,1.1
			c0.9,1.4,0.3,3.4-1.3,4.1c-1.2,0.5-2.6,0.2-3.4-0.8c-0.7-0.9-0.7-2.3,0.1-3.3c0.1-0.1,0.1-0.2,0-0.2c0,0,0-0.1-0.1-0.1
			c-4.7-7.9-9.5-15.8-14.3-23.7c0,0.1,0,0.1,0,0.2c-0.8,2.4-1.5,4.9-2.3,7.3c-0.2,0.7-0.1,1.4,0.2,2.1c0.7,1.3,1.5,2.5,2.2,3.7
			c0,0.1,0.1,0.1,0.2,0.1c1.2-0.2,2.1,0.2,2.8,1.1c0.9,1.4,0.3,3.4-1.3,4.1c-1.1,0.5-2.5,0.2-3.3-0.8c-0.7-0.9-0.7-2.3,0.1-3.3
			c0.1-0.1,0.1-0.2,0-0.2c-0.7-1.2-1.4-2.4-2.1-3.6s-0.8-2.5-0.4-3.8c0.8-2.7,1.6-5.3,2.5-8c0-0.1,0-0.1,0-0.2
			c0.1-0.7,0-1.2-0.3-1.8c-0.3-0.5-0.6-1.1-1-1.6c-0.5,1.8-1.2,3.8-2.2,5.8c-2,4.3-5,9.2-8,13.9c6.9,7.8,17.1,16.2,22,20.2
			c8.9,7.4,8.3,4.6,14.1,1.1c6.1-3.6,8.7-1.7,5.9-13.9c-1.4-5.8-4.3-18.5-7.8-28C-667.9,992.4-673.5,992.8-678.3,992.5z"/>
		<path class="st2" d="M-685.8,991.3C-685.8,991.3-685.9,991.3-685.8,991.3C-685.9,991.3-685.9,991.3-685.8,991.3L-685.8,991.3z"/>
	</g>
</g>
<rect x="-624.1" y="991.3" class="st3" width="117.5" height="33.5"/>
<g class="st4">
	<path class="st0" d="M-624.4,1011.1l-3.9-11.9c-1.2-3.6-2-6.6-2.9-7.9c0,0,1-0.3,1.8-0.3c4,0,4.9,3.9,6,7.3l3.8,11.6
		c1.6,5,3.6,8,3.6,8s2.4-2.4,5-9.3c0,0-1.6-6.7-1.6-11.8c0-3.3,1.5-5.1,5.1-5.1c-0.1,1.5-0.2,2.9-0.2,4.3c0,12.8,6.2,22,6.2,22
		s2-2.9,3.6-8l3.8-11.6c1.1-3.4,2.1-7.3,6-7.3c0.9,0,1.9,0.3,1.9,0.3c-0.8,1.3-1.7,4.2-2.9,7.9l-3.9,11.9
		c-3.2,9.6-8.5,13.3-8.5,13.3s-4.3-3.6-7.3-10.2c-2.7,7-7.2,10.2-7.2,10.2S-621.3,1020.7-624.4,1011.1z"/>
	<path class="st0" d="M-572.3,1007.2c0-2-1-3.6-4.8-3.6c-4.1,0-7.2,1.5-7.2,5c-1.1-1.5-1.5-2.8-1.5-3.9c0-3.6,4.6-4.9,8.7-4.9
		c6.2,0,9.6,2.8,9.6,7.6v16.4c-1.1-0.5-2.2-0.6-3.3-0.6c-2.2,0-4.3,0.8-6.8,0.8c-4.4,0-8.8-1.7-8.8-6.9
		C-586.5,1008.5-574.1,1011.1-572.3,1007.2z M-572.2,1011.3c-1,2.7-9.6,1.1-9.6,5.8c0,2,1.5,3.4,4.8,3.4c2.9,0,4.8-1,4.8-1V1011.3z"
		/>
	<path class="st0" d="M-562.1,989c0.3,0,4.8,0,4.8,2.6v23.9c0,2.6,0.4,6.8,3.2,6.8c-1.1,1.2-2.2,1.5-3.2,1.5c-3.3,0-4.8-3.1-4.8-6.8
		V989z"/>
	<path class="st0" d="M-551.4,989c0.3,0,4.8,0,4.8,2.6v23.9c0,2.6,0.4,6.8,3.2,6.8c-1.1,1.2-2.2,1.5-3.2,1.5c-3.3,0-4.8-3.1-4.8-6.8
		V989z"/>
</g>
<g class="st4">
	<path class="st1" d="M-524.2,1004.2c3.1,0,4.5-0.6,4.5-0.6c0,1.9-0.5,4.4-3.8,4.4h-8.8v15.9c0,0-5,0-5-2.6v-30h19.9
		c0,0,0,3.8-2.9,3.8h-12v9.1L-524.2,1004.2L-524.2,1004.2z"/>
	<path class="st1" d="M-514.8,989c0.3,0,4.8,0,4.8,2.6v23.9c0,2.6,0.4,6.8,3.2,6.8c-1.1,1.2-2.2,1.5-3.2,1.5c-3.3,0-4.8-3.1-4.8-6.8
		V989z"/>
	<path class="st1" d="M-504.3,1009c-0.3-3-0.6-6-1-8.9c0,0,3.7,0,4.6,2c0.8,2,1,5.3,1.3,7.8c0.7,5.6,4.5,8.2,4.5,8.2
		s3.9-2.8,4.6-8.2l0.8-5.9c0.5-3.9,4.4-4,5.1-4c-0.4,3-0.6,6-1,8.9c-0.7,6-4.3,10.3-7,12.4l-1.8,1.4c-3,2.3-5.3,4.2-5.3,7.3
		c0,1.5,0.4,2.9,1,4.1c-0.5,0.2-1,0.5-1.7,0.5c-1.7,0-4-1.1-4-4.8c0-4.1,3-6.7,6.3-9.1C-500.5,1019.2-503.7,1014.6-504.3,1009z"/>
</g>
</svg>
