<?xml version="1.0" encoding="utf-8"?>
<!-- Generator: Adobe Illustrator 19.1.0, SVG Export Plug-In . SVG Version: 6.00 Build 0)  -->
<svg version="1.1" id="Layer_1" xmlns="http://www.w3.org/2000/svg" xmlns:xlink="http://www.w3.org/1999/xlink" x="0px" y="0px"
	 viewBox="26 52.9 244 88.1" style="enable-background:new 26 52.9 244 88.1;" xml:space="preserve">
<style type="text/css">
	.st0{fill:#FFFFFF;}
	.st1{fill:#9FDD5E;}
	.st2{fill:#040305;}
	.st3{fill:none;}
	.st4{font-family:'DiavloMedium-Regular';}
	.st5{font-size:45.5489px;}
</style>
<g>
	<path class="st0" d="M52.2,68.7c0.8-0.6,1.6-0.9,2.4-1c3.8-1.2,9.3-2,15.6-2.5c-3-2.7-6.1-4.9-9-6.6c-2-1.1-3.9-2-5.9-2.8
		c0.2-1.5-0.9-2.8-2.4-2.9c-1.1,0-2.1,0.6-2.5,1.6c-2.2-0.3-4.3-0.1-6,0.9s-2.9,2.8-3.7,5c-1.1-0.1-2.2,0.5-2.7,1.5
		c-0.7,1.4,0.1,3.1,1.5,3.6c-0.3,2-0.4,4.1-0.3,6.3c0,3.4,0.6,7.2,1.5,11.3c3.4-5.3,6.7-9.8,9.5-12.6C50.6,69.7,51.3,69.2,52.2,68.7
		z"/>
	<path class="st1" d="M89.3,65.2c-6.1,0.4-12.6,0.7-18.5,1.3C64.6,67,59,67.8,55.2,69c-0.7,0.1-1.5,0.4-2.4,1c-0.9,0.5-1.6,1-2,1.6
		c-2.9,2.7-6.1,7.3-9.5,12.6c-3.2,5-6.6,10.6-9.8,15.8c-10.2,16.5-4.3,20.5,2.7,29.8c1.2,1.6,9.3,9.8,9.5,7.8
		c0.4-4.1,6.8-13.2,12.9-22.7c3-4.7,6-9.6,8-13.9c1.2-2.6,2-5,2.5-7.2c2.2,0.6,4.6,1.1,7.6,1.2c4.8,0.2,10.4-0.1,16-0.6
		c11.2-0.9,22.3-2.3,26.1-0.8c1.9,0.8-1.5-10.2-2.4-12C109.4,71.1,108.6,63.9,89.3,65.2z"/>
	<g>
		<path class="st0" d="M75.4,96.2c-2.3-0.1-4.4-0.4-6.3-0.9c1.5,2.5,3,5,4.5,7.4c0.1,0.1,0.2,0.2,0.2,0.4c0.3,0.4,0.8,0.7,1.3,0.8
			c2.1,0.4,4.1,0.8,6.2,1.2c0.8,0.1,1.6,0.3,2.3,0.4c1.2,0.3,2.3,1,2.9,2.1c0.7,1.1,1.4,2.4,2.1,3.6c0,0,0,0.1,0.1,0.1
			c0,0.1,0.1,0.1,0.2,0.1c1.2-0.2,2.1,0.2,2.8,1.1c0.9,1.4,0.3,3.4-1.3,4.1c-1.2,0.5-2.6,0.2-3.4-0.8c-0.7-0.9-0.7-2.3,0.1-3.3
			c0.1-0.1,0.1-0.2,0-0.2c0,0,0-0.1-0.1-0.1l-2.2-3.7c-0.1-0.1-0.1-0.2-0.2-0.3c-0.4-0.4-0.8-0.7-1.3-0.8c-2.6-0.5-5.1-1-7.7-1.5
			h-0.1c3.6,6,7.2,11.9,10.7,17.9c0,0,0,0.1,0.1,0.1c0,0.1,0.1,0.1,0.2,0.1c1.2-0.2,2.1,0.2,2.8,1.1c0.9,1.4,0.3,3.4-1.3,4.1
			c-1.2,0.5-2.6,0.2-3.4-0.8c-0.7-0.9-0.7-2.3,0.1-3.3c0.1-0.1,0.1-0.2,0-0.2c0,0,0-0.1-0.1-0.1c-4.7-7.9-9.5-15.8-14.3-23.7
			c0,0.1,0,0.1,0,0.2c-0.8,2.4-1.5,4.9-2.3,7.3c-0.2,0.7-0.1,1.4,0.2,2.1c0.7,1.3,1.5,2.5,2.2,3.7c0,0.1,0.1,0.1,0.2,0.1
			c1.2-0.2,2.1,0.2,2.8,1.1c0.9,1.4,0.3,3.4-1.3,4.1c-1.1,0.5-2.5,0.2-3.3-0.8c-0.7-0.9-0.7-2.3,0.1-3.3c0.1-0.1,0.1-0.2,0-0.2
			c-0.7-1.2-1.4-2.4-2.1-3.6s-0.8-2.5-0.4-3.8c0.8-2.7,1.6-5.3,2.5-8c0-0.1,0-0.1,0-0.2c0.1-0.7,0-1.2-0.3-1.8
			c-0.3-0.5-0.6-1.1-1-1.6c-0.5,1.8-1.2,3.8-2.2,5.8c-2,4.3-5,9.2-8,13.9c6.9,7.8,17.1,16.2,22,20.2c8.9,7.4,8.3,4.6,14.1,1.1
			c6.1-3.6,8.7-1.7,5.9-13.9c-1.4-5.8-4.3-18.5-7.8-28C85.8,96.1,80.2,96.5,75.4,96.2z"/>
		<path class="st2" d="M67.9,95C67.9,95,67.8,95,67.9,95C67.8,95,67.8,95,67.9,95L67.9,95z"/>
	</g>
</g>
<rect x="129.6" y="95" class="st3" width="117.5" height="33.5"/>
<text transform="matrix(1 0 0 1 122.3042 127.1632)" class="st0 st4 st5">Wall</text>
<text transform="matrix(1 0 0 1 213.0112 127.1632)" class="st1 st4 st5">Fly</text>
</svg>
