<?xml version="1.0" standalone="no"?>
<!DOCTYPE svg PUBLIC "-//W3C//DTD SVG 20010904//EN"
 "http://www.w3.org/TR/2001/REC-SVG-20010904/DTD/svg10.dtd">
<svg version="1.0" xmlns="http://www.w3.org/2000/svg"
 width="886.000000pt" height="886.000000pt" viewBox="0 0 886.000000 886.000000"
 preserveAspectRatio="xMidYMid meet">
<metadata>
Created by potrace 1.11, written by Peter Selinger 2001-2013
</metadata>
<g transform="translate(0.000000,886.000000) scale(0.100000,-0.100000)"
fill="#000000" stroke="none">
<path d="M0 4430 l0 -4430 4430 0 4430 0 0 4430 0 4430 -4430 0 -4430 0 0
-4430z m3193 3026 c18 -7 47 -29 64 -49 28 -32 36 -54 46 -125 1 -7 52 -34
114 -61 283 -123 569 -305 828 -527 l80 -69 -40 -7 c-22 -4 -132 -17 -245 -28
-406 -42 -803 -126 -924 -195 -97 -55 -119 -71 -161 -124 -22 -27 -82 -98
-134 -158 -116 -132 -252 -314 -405 -541 -64 -94 -119 -172 -124 -173 -4 0
-17 49 -29 108 -73 351 -98 699 -72 969 l11 112 -50 49 c-35 33 -54 61 -61 91
-28 103 51 213 159 224 33 3 37 8 83 101 110 223 283 325 533 315 l91 -4 21
32 c40 62 143 91 215 60z m3115 -851 c319 -49 539 -171 695 -384 77 -104 148
-239 280 -531 160 -352 257 -652 288 -888 15 -107 8 -146 -24 -139 -134 31
-182 38 -307 43 -157 7 -409 -5 -780 -37 -889 -76 -1074 -90 -1335 -100 -420
-18 -686 -1 -936 59 l-76 19 -28 -101 c-103 -377 -311 -761 -910 -1681 -370
-569 -485 -759 -580 -959 -56 -116 -95 -224 -95 -261 0 -68 -73 -39 -226 87
-182 151 -367 348 -558 593 -218 280 -284 378 -348 512 -174 363 -96 744 277
1363 616 1020 982 1577 1211 1841 194 224 273 276 514 338 365 95 839 150
1815 211 264 16 503 31 530 34 108 9 492 -3 593 -19z m-1942 -2085 c283 -55
811 -53 1380 6 l61 6 71 -214 c134 -401 307 -1041 451 -1663 74 -321 85 -393
86 -540 0 -112 -3 -136 -21 -176 -35 -76 -85 -114 -260 -200 -157 -76 -273
-146 -404 -244 -87 -64 -175 -105 -226 -105 -87 0 -196 53 -361 177 -185 140
-695 568 -978 822 -168 151 -550 525 -656 643 l-70 76 54 84 c289 447 526 893
612 1149 l43 131 28 -43 c69 -109 78 -165 44 -265 -58 -169 -162 -524 -167
-570 -9 -81 11 -136 103 -296 l85 -147 -20 -40 c-25 -48 -28 -129 -6 -171 52
-100 208 -121 299 -41 51 45 73 159 42 220 -34 65 -89 96 -185 103 -31 3 -38
11 -112 133 -117 193 -116 170 -13 502 47 153 86 279 88 280 3 4 446 -725 789
-1297 l207 -345 -20 -40 c-59 -116 12 -250 139 -263 121 -11 220 77 221 197 0
94 -69 162 -174 171 l-59 5 -374 624 -373 623 47 -7 c26 -4 154 -28 285 -54
165 -33 247 -54 266 -68 29 -21 202 -298 202 -323 0 -8 -7 -23 -15 -34 -24
-32 -29 -102 -10 -151 29 -78 105 -121 196 -113 150 15 228 195 133 308 -36
42 -74 60 -131 60 -26 0 -53 4 -58 8 -6 4 -46 68 -89 142 -43 74 -92 150 -110
168 -50 54 -117 82 -255 107 -509 93 -554 105 -583 159 -11 21 -260 430 -306
504 -17 27 -21 27 104 2z"/>
</g>
</svg>
